Coordinates
version=1
nRows=19
nColumns=33
inDegrees=yes

Units are S.I. units (second, meters, Newtons, ...)
Angles are in degrees.

endheader
time	ground_thorax_rot_x	ground_thorax_rot_y	ground_thorax_rot_z	ground_thorax_tx	ground_thorax_ty	ground_thorax_tz	clav_prot_r	clav_elev_r	scapula_abduction_r	scapula_elevation_r	scapula_upward_rot_r	scapula_winging_r	shoulder_elv_r	plane_of_elev_r	axial_rot_r	elbow_flexion_r	pro_sup_r	wrist_flex_r	wrist_dev_r	clav_prot_l	clav_elev_l	scapula_abduction_l	scapula_elevation_l	scapula_upward_rot_l	scapula_winging_l	shoulder_elv_l	plane_of_elev_l	axial_rot_l	elbow_flexion_l	pro_sup_l	wrist_flex_l	wrist_dev_l
      2.67000000	     39.29557275	     -5.96042394	      0.99942012	   -220.27524072	    853.95299646	     -7.30308794	     12.55022870	     35.98488368	     31.60967273	     45.00000000	    -45.00000000	   1364.63404055	  -3345.48953412	    147.21253495	    179.99999979	    729.23402242	     60.76846508	     26.40398586	     13.23862306	     12.10288896	    -45.00000000	    -38.61156296	     45.00000000	    -45.00000000	  -3865.95067038	  -2617.49845454	    139.10050952	   -179.99999979	   1088.34026284	   -305.73451382	     11.29668918	    -24.99999983
      2.68000000	     39.28283505	     -6.11875655	      0.72854300	   -221.07302766	    855.88102394	     -7.28254041	     12.72159024	     35.95486915	     31.83537508	     45.00000000	    -45.00000000	   1364.51666118	  -3345.42843010	    147.22405146	    179.99999979	    729.22530692	     60.13318361	     26.39674649	     13.19710021	     11.84400551	    -45.00000000	    -38.37444564	     45.00000000	    -45.00000000	  -3865.92695858	  -2617.31373511	    139.15557021	   -179.99999979	   1088.24445527	   -307.28174970	     11.82331610	    -24.99999983
      2.69000000	     39.25543188	     -6.11641876	      0.50476654	   -221.60517189	    857.64596724	     -7.25822583	     12.63897969	     35.94619442	     31.78150829	     45.00000000	    -45.00000000	   1364.43121739	  -3345.28024042	    147.12734565	    179.99999979	    729.33507271	     59.75494528	     26.38271995	     13.30147312	     12.02261612	    -45.00000000	    -38.52288200	     45.00000000	    -45.00000000	  -3865.72419331	  -2617.24040394	    139.10028763	   -179.99999979	   1088.12892586	   -308.52071350	     11.97567829	    -24.99999983
      2.70000000	     39.26323219	     -6.12109830	      0.29774799	   -221.88376099	    859.24049052	     -7.22501672	     12.67990605	     35.98511465	     31.75972610	     45.00000000	    -45.00000000	   1364.32036240	  -3345.13125552	    147.09625792	    179.99999979	    729.48372129	     59.51340286	     26.40019222	     13.28231083	     12.07220718	    -45.00000000	    -38.55005548	     45.00000000	    -45.00000000	  -3865.65339222	  -2617.10334309	    139.09183786	   -179.99999979	   1088.11675216	   -309.47347081	     12.17684056	    -24.99999983
      2.71000000	     39.28939735	     -6.31178587	     -0.08882281	   -221.91376201	    860.66803392	     -7.17625392	     12.65534141	     35.99704479	     31.88120865	     45.00000000	    -45.00000000	   1364.23335071	  -3344.93733800	    146.90874065	    179.99999979	    729.47085666	     59.43976065	     26.41057205	     13.32129721	     12.14167478	    -45.00000000	    -38.73138375	     45.00000000	    -45.00000000	  -3865.57348668	  -2616.99057733	    138.91395278	   -179.99999979	   1088.13892780	   -310.15174495	     12.22184876	    -24.99999983
      2.72000000	     39.24336278	     -6.39887355	     -0.37973586	   -221.70705534	    861.94352114	     -7.10758293	     12.72344489	     35.99430438	     31.87152545	     45.00000000	    -45.00000000	   1364.12615486	  -3344.78944312	    146.81600878	    179.99999979	    729.79599664	     59.40221954	     26.52985956	     13.28433364	     12.17511013	    -45.00000000	    -38.94685666	     45.00000000	    -45.00000000	  -3865.51450318	  -2616.84927623	    138.86433632	   -179.99999979	   1088.23599675	   -310.59942086	     12.31093747	    -24.99999983
      2.73000000	     39.22970236	     -6.24650523	     -0.26029929	   -221.27533861	    863.07445537	     -7.02046752	     12.68958519	     35.97801184	     31.99961534	     45.00000000	    -45.00000000	   1363.98582551	  -3344.83106076	    146.88044292	    179.99999979	    729.84161002	     59.45934941	     26.47318276	     13.20556462	     12.27273557	    -45.00000000	    -38.84156617	     45.00000000	    -45.00000000	  -3865.39270492	  -2616.71697704	    138.87206310	   -179.99999979	   1088.18137029	   -310.90081800	     12.21258780	    -24.99999983
      2.74000000	     39.19170494	     -6.17337534	     -0.29147527	   -220.64108698	    864.07848412	     -6.91962552	     12.60215155	     35.94495409	     31.88748043	     45.00000000	    -45.00000000	   1364.08093816	  -3344.54721196	    146.85271935	    179.99999979	    729.96490495	     59.59604289	     26.52693421	     13.15351730	     12.34242578	    -45.00000000	    -38.96119435	     45.00000000	    -45.00000000	  -3865.35140192	  -2616.58838944	    138.88397810	   -179.99999979	   1088.25333822	   -311.03680745	     12.24484763	    -24.99999983
      2.75000000	     39.21010812	     -6.17738249	     -0.52763234	   -219.82619564	    864.96878077	     -6.81361068	     12.44166447	     35.90155770	     31.77446026	     45.00000000	    -45.00000000	   1364.03138563	  -3344.24047279	    146.64997222	    179.99999979	    730.02433705	     59.81335592	     26.60353884	     13.12845265	     12.52298443	    -45.00000000	    -39.33136013	     45.00000000	    -45.00000000	  -3865.26775429	  -2616.54267678	    138.72881981	   -179.99999979	   1088.45509585	   -311.05140071	     12.15325545	    -24.99999983
      2.76000000	     39.14990055	     -6.06820731	     -0.45721007	   -218.86210467	    865.76211603	     -6.71011842	     12.31479833	     35.82977735	     31.94402998	     45.00000000	    -45.00000000	   1363.96438306	  -3344.30088489	    146.80002024	    179.99999979	    730.29565176	     60.10537769	     26.68948986	     13.00758685	     12.57786971	    -45.00000000	    -39.25573976	     45.00000000	    -45.00000000	  -3865.25712371	  -2616.29179279	    138.74926553	   -179.99999979	   1088.55405622	   -310.89936259	     12.12449632	    -24.99999983
      2.77000000	     39.18422542	     -6.07709866	     -0.57717710	   -217.77710406	    866.47816339	     -6.61459776	     12.28918684	     35.87511343	     31.96898446	     45.00000000	    -45.00000000	   1363.97481681	  -3344.01972771	    146.71405083	    179.99999979	    730.37522378	     60.48955551	     26.79242540	     12.93744946	     12.43874686	    -45.00000000	    -39.41645508	     45.00000000	    -45.00000000	  -3865.31678382	  -2616.18086031	    138.70642652	   -179.99999979	   1088.73175360	   -310.69308804	     12.05513253	    -24.99999983
      2.78000000	     39.08904500	     -6.12982207	     -0.67660275	   -216.59818619	    867.14210390	     -6.52874320	     12.39375153	     35.85811145	     32.13263595	     45.00000000	    -45.00000000	   1363.86298757	  -3344.03938086	    146.65473581	    179.99999979	    730.63112120	     60.95774264	     26.93186045	     12.84377355	     12.47990156	    -45.00000000	    -39.45342472	     45.00000000	    -45.00000000	  -3865.31333526	  -2615.96355283	    138.60835413	   -179.99999979	   1088.86280339	   -310.41644820	     11.98581381	    -24.99999983
      2.79000000	     39.05230330	     -6.09232118	     -0.77705615	   -215.34922080	    867.77556690	     -6.45322459	     12.19432155	     35.80886053	     32.17249177	     45.00000000	    -45.00000000	   1363.85153299	  -3343.89285512	    146.62514159	    179.99999979	    730.82387588	     61.49418802	     27.07146305	     12.72444885	     12.46581193	    -45.00000000	    -39.63881470	     45.00000000	    -45.00000000	  -3865.31945483	  -2615.79224652	    138.53350938	   -179.99999979	   1089.03725156	   -310.11218682	     11.93223128	    -24.99999983
      2.80000000	     39.01130173	     -6.18158823	     -0.88845126	   -214.03953895	    868.40978720	     -6.38698740	     12.33560076	     35.84112715	     32.32425370	     45.00000000	    -45.00000000	   1363.77576414	  -3343.77168062	    146.53082400	    179.99999979	    730.99710956	     62.08056595	     27.22366225	     12.63451002	     12.40176796	    -45.00000000	    -39.69282746	     45.00000000	    -45.00000000	  -3865.38323491	  -2615.60866485	    138.45013206	   -179.99999979	   1089.18608274	   -309.79933245	     11.86236560	    -24.99999983
      2.81000000	     38.96796745	     -6.13667294	     -0.96002000	   -212.67736935	    869.07513482	     -6.32903367	     12.15689865	     35.79775545	     32.36341710	     45.00000000	    -45.00000000	   1363.74612655	  -3343.62342512	    146.48409613	    179.99999979	    731.19601504	     62.66299796	     27.36882626	     12.51271028	     12.45702826	    -45.00000000	    -39.90710810	     45.00000000	    -45.00000000	  -3865.33970474	  -2615.42603346	    138.34952716	   -179.99999979	   1089.36982624	   -309.48919085	     11.78276360	    -24.99999983
      2.82000000	     38.94496009	     -6.22687990	     -1.06873507	   -211.26095063	    869.80692395	     -6.27874417	     12.28277527	     35.83790883	     32.56899196	     45.00000000	    -45.00000000	   1363.63500735	  -3343.50626883	    146.38924587	    179.99999979	    731.35804434	     63.24471931	     27.50843736	     12.41519624	     12.38028019	    -45.00000000	    -39.95117313	     45.00000000	    -45.00000000	  -3865.38756923	  -2615.18577484	    138.25572931	   -179.99999979	   1089.50913886	   -309.16808031	     11.67760703	    -24.99999983
      2.83000000	     38.91743753	     -6.25745654	     -1.14787709	   -209.78771809	    870.63948988	     -6.23563167	     12.25290614	     35.82345074	     32.72226519	     45.00000000	    -45.00000000	   1363.52907356	  -3343.37531951	    146.31072859	    179.99999979	    731.52065189	     63.79102947	     27.64154115	     12.31462123	     12.36142840	    -45.00000000	    -40.08012514	     45.00000000	    -45.00000000	  -3865.35819101	  -2614.95445717	    138.11956954	   -179.99999979	   1089.66751276	   -308.83516486	     11.55350432	    -24.99999983
      2.84000000	     38.89771738	     -6.25951757	     -1.21298392	   -208.25450475	    871.60465365	     -6.19919545	     12.17456611	     35.83235329	     32.82416836	     45.00000000	    -45.00000000	   1363.44014434	  -3343.17169558	    146.23786328	    179.99999979	    731.70040929	     64.27096809	     27.76658169	     12.21309163	     12.34185942	    -45.00000000	    -40.24634625	     45.00000000	    -45.00000000	  -3865.33749525	  -2614.68629908	    138.03986193	   -179.99999979	   1089.85535911	   -308.50361254	     11.40628369	    -24.99999983
      2.85000000	     38.88171968	     -6.27288250	     -1.28991827	   -206.65767209	    872.72802471	     -6.16752675	     12.12546816	     35.82886953	     32.96883225	     45.00000000	    -45.00000000	   1363.29168017	  -3342.97835948	    146.14470567	    179.99999979	    731.88267291	     64.70969698	     27.87789995	     12.12091570	     12.33706001	    -45.00000000	    -40.41657530	     45.00000000	    -45.00000000	  -3865.27865781	  -2614.39682577	    137.90905945	   -179.99999979	   1090.06989466	   -308.15967305	     11.21564309	    -24.99999983
